<svg xmlns="http://www.w3.org/2000/svg" xmlns:xlink="http://www.w3.org/1999/xlink" width="500" zoomAndPan="magnify" viewBox="0 0 375 374.999991" height="500" preserveAspectRatio="xMidYMid meet" version="1.0"><defs><g/><clipPath id="7a0c6ba257"><path d="M 153.46875 126.519531 L 221.71875 126.519531 L 221.71875 167.019531 L 153.46875 167.019531 Z M 153.46875 126.519531 " clip-rule="nonzero"/></clipPath></defs><rect x="-37.5" width="450" fill="#ffffff" y="-37.499999" height="449.999989" fill-opacity="1"/><rect x="-37.5" width="450" fill="#1b170e" y="-37.499999" height="449.999989" fill-opacity="1"/><g clip-path="url(#7a0c6ba257)"><path fill="#efd08a" d="M 194.339844 132.628906 C 194.339844 131.617188 195.164062 130.792969 196.179688 130.792969 C 197.191406 130.792969 198.015625 131.617188 198.015625 132.628906 C 198.015625 133.644531 197.191406 134.46875 196.179688 134.46875 C 195.164062 134.46875 194.339844 133.644531 194.339844 132.628906 Z M 176.460938 132.628906 C 176.460938 131.617188 177.285156 130.792969 178.296875 130.792969 C 179.3125 130.792969 180.136719 131.617188 180.136719 132.628906 C 180.136719 133.644531 179.3125 134.46875 178.296875 134.46875 C 177.285156 134.46875 176.460938 133.644531 176.460938 132.628906 Z M 159.863281 140.414062 C 159.863281 139.398438 160.683594 138.574219 161.699219 138.574219 C 162.714844 138.574219 163.535156 139.398438 163.535156 140.414062 C 163.535156 141.429688 162.714844 142.25 161.699219 142.25 C 160.683594 142.25 159.863281 141.429688 159.863281 140.414062 Z M 210.84375 140.414062 C 210.84375 139.398438 211.664062 138.574219 212.679688 138.574219 C 213.695312 138.574219 214.519531 139.398438 214.519531 140.414062 C 214.519531 141.429688 213.695312 142.25 212.679688 142.25 C 211.664062 142.25 210.84375 141.429688 210.84375 140.414062 Z M 191.878906 160.28125 C 194.367188 156.832031 197.53125 153.902344 201.242188 151.636719 C 201.628906 151.398438 202.027344 151.171875 202.425781 150.949219 C 202.230469 151.316406 202.035156 151.683594 201.828125 152.042969 C 198.980469 156.996094 194.960938 161.027344 190.097656 163.855469 C 190.761719 162.695312 191.355469 161.503906 191.878906 160.28125 Z M 188.554688 161.898438 C 188.542969 161.453125 188.519531 161.011719 188.492188 160.570312 C 188.835938 155.761719 190.257812 151.085938 192.703125 146.820312 C 192.703125 146.828125 192.703125 146.839844 192.703125 146.847656 C 192.703125 151.191406 191.851562 155.417969 190.207031 159.339844 C 189.621094 160.167969 189.066406 161.019531 188.554688 161.898438 Z M 184.007812 145.851562 C 183.5 144.972656 182.957031 144.125 182.382812 143.300781 C 182.933594 138.246094 184.652344 133.433594 187.449219 129.164062 C 190.285156 133.492188 192.007812 138.378906 192.53125 143.507812 C 192.011719 144.265625 191.519531 145.046875 191.058594 145.851562 C 189.476562 148.605469 188.296875 151.519531 187.53125 154.527344 C 186.769531 151.519531 185.589844 148.605469 184.007812 145.851562 Z M 186.507812 161.992188 C 185.90625 160.957031 185.253906 159.957031 184.550781 158.996094 C 183 155.171875 182.191406 151.066406 182.191406 146.847656 C 182.191406 146.746094 182.199219 146.648438 182.199219 146.550781 C 182.25 146.636719 182.300781 146.71875 182.351562 146.804688 C 184.804688 151.074219 186.230469 155.753906 186.574219 160.570312 C 186.542969 161.042969 186.519531 161.519531 186.507812 161.992188 Z M 173.238281 152.042969 C 173.039062 151.699219 172.847656 151.347656 172.664062 150.996094 C 173.035156 151.203125 173.402344 151.414062 173.761719 151.636719 C 177.351562 153.828125 180.421875 156.640625 182.875 159.945312 C 183.40625 161.234375 184.023438 162.488281 184.71875 163.710938 C 179.964844 160.890625 176.035156 156.910156 173.238281 152.042969 Z M 221.328125 145.527344 C 221.167969 145.265625 220.890625 145.09375 220.582031 145.070312 C 217.0625 144.8125 213.542969 145.097656 210.121094 145.917969 C 209.609375 146.039062 209.292969 146.554688 209.414062 147.070312 C 209.539062 147.582031 210.054688 147.898438 210.566406 147.773438 C 213.351562 147.109375 216.207031 146.816406 219.070312 146.90625 C 216.378906 152.582031 212.132812 157.300781 206.71875 160.605469 C 202.027344 163.472656 196.789062 165.070312 191.386719 165.316406 C 196.390625 162.332031 200.535156 158.128906 203.484375 152.996094 C 204.148438 151.84375 204.75 150.640625 205.273438 149.425781 C 205.394531 149.140625 205.367188 148.832031 205.226562 148.582031 C 205.21875 148.5625 205.214844 148.539062 205.203125 148.515625 C 204.984375 148.035156 204.417969 147.824219 203.9375 148.042969 C 202.679688 148.617188 201.4375 149.277344 200.246094 150.003906 C 197.773438 151.515625 195.535156 153.308594 193.554688 155.335938 C 194.253906 152.589844 194.617188 149.742188 194.617188 146.847656 C 194.617188 145.902344 194.574219 144.964844 194.5 144.035156 C 197.515625 139.832031 201.457031 136.441406 206.082031 134.097656 C 206.226562 136.558594 206.085938 139.027344 205.664062 141.453125 C 205.574219 141.976562 205.921875 142.46875 206.441406 142.558594 C 206.960938 142.648438 207.457031 142.300781 207.546875 141.78125 C 208.078125 138.734375 208.1875 135.625 207.878906 132.535156 C 207.847656 132.230469 207.667969 131.957031 207.402344 131.800781 C 207.136719 131.648438 206.8125 131.632812 206.53125 131.761719 C 201.679688 133.96875 197.480469 137.226562 194.171875 141.3125 C 193.332031 136.136719 191.320312 131.238281 188.226562 126.917969 C 188.046875 126.667969 187.757812 126.519531 187.449219 126.519531 C 187.140625 126.519531 186.851562 126.667969 186.671875 126.917969 C 183.609375 131.191406 181.609375 136.035156 180.757812 141.148438 C 177.46875 137.140625 173.320312 133.9375 168.535156 131.761719 C 168.253906 131.632812 167.929688 131.648438 167.664062 131.800781 C 167.394531 131.957031 167.21875 132.230469 167.1875 132.535156 C 166.878906 135.625 166.988281 138.734375 167.515625 141.78125 C 167.605469 142.300781 168.101562 142.648438 168.621094 142.558594 C 169.140625 142.46875 169.492188 141.976562 169.402344 141.453125 C 168.980469 139.027344 168.839844 136.558594 168.980469 134.097656 C 173.53125 136.402344 177.421875 139.71875 180.417969 143.824219 C 180.332031 144.824219 180.28125 145.832031 180.28125 146.847656 C 180.28125 149.691406 180.632812 152.488281 181.308594 155.1875 C 179.363281 153.21875 177.171875 151.476562 174.757812 150.003906 C 173.570312 149.277344 172.324219 148.617188 171.066406 148.042969 C 170.585938 147.824219 170.019531 148.035156 169.800781 148.515625 C 169.730469 148.667969 169.710938 148.824219 169.71875 148.980469 C 169.710938 149.125 169.730469 149.277344 169.792969 149.425781 C 170.316406 150.640625 170.917969 151.84375 171.582031 152.996094 C 174.53125 158.128906 178.675781 162.335938 183.683594 165.320312 C 178.257812 165.085938 172.996094 163.484375 168.285156 160.605469 C 162.871094 157.300781 158.625 152.582031 155.933594 146.90625 C 158.800781 146.816406 161.652344 147.109375 164.4375 147.773438 C 164.949219 147.898438 165.464844 147.582031 165.589844 147.070312 C 165.710938 146.554688 165.394531 146.039062 164.882812 145.917969 C 161.460938 145.097656 157.941406 144.8125 154.421875 145.070312 C 154.113281 145.09375 153.835938 145.265625 153.675781 145.527344 C 153.515625 145.789062 153.492188 146.113281 153.613281 146.398438 C 156.410156 153.003906 161.140625 158.484375 167.289062 162.238281 C 172.707031 165.546875 178.808594 167.265625 185.082031 167.265625 C 185.886719 167.261719 186.695312 167.234375 187.5 167.175781 C 188.308594 167.234375 189.117188 167.265625 189.921875 167.265625 C 196.195312 167.261719 202.296875 165.546875 207.714844 162.238281 C 213.863281 158.484375 218.59375 153.003906 221.394531 146.398438 C 221.511719 146.113281 221.488281 145.789062 221.328125 145.527344 " fill-opacity="1" fill-rule="nonzero"/></g><g fill="#efd08a" fill-opacity="1"><g transform="translate(146.874312, 196.762794)"><g><path d="M 3.15625 -18.375 L 3.15625 0 L 5.53125 0 L 5.53125 -8.109375 L 6.6875 -8.109375 C 7.175781 -8.109375 7.582031 -8.0625 7.90625 -7.96875 C 8.238281 -7.882812 8.535156 -7.738281 8.796875 -7.53125 C 9.054688 -7.320312 9.300781 -7.050781 9.53125 -6.71875 C 9.757812 -6.382812 10.03125 -5.972656 10.34375 -5.484375 L 12.421875 -2.421875 C 12.679688 -2.015625 12.9375 -1.644531 13.1875 -1.3125 C 13.445312 -0.976562 13.722656 -0.691406 14.015625 -0.453125 C 14.316406 -0.222656 14.65625 -0.0390625 15.03125 0.09375 C 15.40625 0.238281 15.851562 0.3125 16.375 0.3125 C 16.757812 0.3125 17.070312 0.289062 17.3125 0.25 C 17.5625 0.21875 17.8125 0.132812 18.0625 0 L 18.0625 -0.96875 C 17.96875 -0.945312 17.878906 -0.929688 17.796875 -0.921875 C 17.710938 -0.921875 17.625 -0.921875 17.53125 -0.921875 C 17.164062 -0.921875 16.84375 -0.972656 16.5625 -1.078125 C 16.28125 -1.179688 16.015625 -1.332031 15.765625 -1.53125 C 15.523438 -1.738281 15.289062 -1.984375 15.0625 -2.265625 C 14.832031 -2.554688 14.597656 -2.882812 14.359375 -3.25 C 13.617188 -4.320312 13.046875 -5.175781 12.640625 -5.8125 C 12.242188 -6.445312 11.925781 -6.941406 11.6875 -7.296875 C 11.457031 -7.648438 11.265625 -7.90625 11.109375 -8.0625 C 10.960938 -8.21875 10.785156 -8.347656 10.578125 -8.453125 L 10.3125 -8.578125 L 10.3125 -8.6875 C 11.15625 -8.738281 11.878906 -8.921875 12.484375 -9.234375 C 13.085938 -9.554688 13.582031 -9.953125 13.96875 -10.421875 C 14.351562 -10.890625 14.628906 -11.398438 14.796875 -11.953125 C 14.972656 -12.503906 15.0625 -13.046875 15.0625 -13.578125 C 15.0625 -14.046875 14.96875 -14.554688 14.78125 -15.109375 C 14.601562 -15.671875 14.289062 -16.191406 13.84375 -16.671875 C 13.394531 -17.160156 12.785156 -17.566406 12.015625 -17.890625 C 11.253906 -18.210938 10.285156 -18.375 9.109375 -18.375 Z M 5.53125 -17.21875 L 8.1875 -17.21875 C 8.851562 -17.21875 9.453125 -17.117188 9.984375 -16.921875 C 10.515625 -16.734375 10.972656 -16.46875 11.359375 -16.125 C 11.742188 -15.789062 12.035156 -15.382812 12.234375 -14.90625 C 12.441406 -14.4375 12.546875 -13.921875 12.546875 -13.359375 C 12.546875 -12.890625 12.453125 -12.410156 12.265625 -11.921875 C 12.085938 -11.441406 11.8125 -11.003906 11.4375 -10.609375 C 11.070312 -10.222656 10.625 -9.90625 10.09375 -9.65625 C 9.5625 -9.414062 8.945312 -9.296875 8.25 -9.296875 L 5.53125 -9.296875 Z M 5.53125 -17.21875 "/></g></g></g><g fill="#efd08a" fill-opacity="1"><g transform="translate(167.025517, 196.762794)"><g><path d="M 2.09375 -18.375 L 2.09375 -7.09375 C 2.09375 -6.375 2.160156 -5.578125 2.296875 -4.703125 C 2.441406 -3.835938 2.773438 -3.035156 3.296875 -2.296875 C 3.828125 -1.554688 4.609375 -0.9375 5.640625 -0.4375 C 6.671875 0.0625 8.082031 0.3125 9.875 0.3125 C 10.988281 0.3125 11.976562 0.140625 12.84375 -0.203125 C 13.71875 -0.554688 14.445312 -1.039062 15.03125 -1.65625 C 15.613281 -2.269531 16.050781 -2.984375 16.34375 -3.796875 C 16.644531 -4.609375 16.796875 -5.476562 16.796875 -6.40625 L 16.796875 -18.375 L 15.640625 -18.375 L 15.640625 -7.265625 C 15.640625 -6.878906 15.628906 -6.488281 15.609375 -6.09375 C 15.597656 -5.707031 15.546875 -5.316406 15.453125 -4.921875 C 15.367188 -4.523438 15.234375 -4.132812 15.046875 -3.75 C 14.867188 -3.363281 14.601562 -2.976562 14.25 -2.59375 C 13.625 -1.914062 12.914062 -1.453125 12.125 -1.203125 C 11.34375 -0.960938 10.519531 -0.84375 9.65625 -0.84375 C 8.925781 -0.84375 8.273438 -0.953125 7.703125 -1.171875 C 7.128906 -1.398438 6.59375 -1.742188 6.09375 -2.203125 C 5.6875 -2.554688 5.378906 -2.90625 5.171875 -3.25 C 4.960938 -3.601562 4.804688 -3.945312 4.703125 -4.28125 C 4.597656 -4.625 4.535156 -4.972656 4.515625 -5.328125 C 4.492188 -5.679688 4.484375 -6.03125 4.484375 -6.375 L 4.484375 -18.375 Z M 2.09375 -18.375 "/></g></g></g><g fill="#efd08a" fill-opacity="1"><g transform="translate(187.229204, 196.762794)"><g><path d="M 9.953125 0 L 9.953125 -16.9375 L 16.984375 -16.9375 L 16.984375 -18.375 L 0.53125 -18.375 L 0.53125 -16.9375 L 7.5625 -16.9375 L 7.5625 0 Z M 9.953125 0 "/></g></g></g><g fill="#efd08a" fill-opacity="1"><g transform="translate(206.042266, 196.762794)"><g><path d="M 5.53125 -9.140625 L 16.53125 -9.140625 L 16.53125 0 L 18.921875 0 L 18.921875 -18.375 L 16.53125 -18.375 L 16.53125 -10.34375 L 5.53125 -10.34375 L 5.53125 -18.375 L 3.15625 -18.375 L 3.15625 0 L 5.53125 0 Z M 5.53125 -9.140625 "/></g></g></g><g fill="#efd08a" fill-opacity="1"><g transform="translate(100.362596, 226.012792)"><g><path d="M 3.15625 -18.375 L 3.15625 0 L 5.53125 0 L 5.53125 -8.109375 L 6.6875 -8.109375 C 7.175781 -8.109375 7.582031 -8.0625 7.90625 -7.96875 C 8.238281 -7.882812 8.535156 -7.738281 8.796875 -7.53125 C 9.054688 -7.320312 9.300781 -7.050781 9.53125 -6.71875 C 9.757812 -6.382812 10.03125 -5.972656 10.34375 -5.484375 L 12.421875 -2.421875 C 12.679688 -2.015625 12.9375 -1.644531 13.1875 -1.3125 C 13.445312 -0.976562 13.722656 -0.691406 14.015625 -0.453125 C 14.316406 -0.222656 14.65625 -0.0390625 15.03125 0.09375 C 15.40625 0.238281 15.851562 0.3125 16.375 0.3125 C 16.757812 0.3125 17.070312 0.289062 17.3125 0.25 C 17.5625 0.21875 17.8125 0.132812 18.0625 0 L 18.0625 -0.96875 C 17.96875 -0.945312 17.878906 -0.929688 17.796875 -0.921875 C 17.710938 -0.921875 17.625 -0.921875 17.53125 -0.921875 C 17.164062 -0.921875 16.84375 -0.972656 16.5625 -1.078125 C 16.28125 -1.179688 16.015625 -1.332031 15.765625 -1.53125 C 15.523438 -1.738281 15.289062 -1.984375 15.0625 -2.265625 C 14.832031 -2.554688 14.597656 -2.882812 14.359375 -3.25 C 13.617188 -4.320312 13.046875 -5.175781 12.640625 -5.8125 C 12.242188 -6.445312 11.925781 -6.941406 11.6875 -7.296875 C 11.457031 -7.648438 11.265625 -7.90625 11.109375 -8.0625 C 10.960938 -8.21875 10.785156 -8.347656 10.578125 -8.453125 L 10.3125 -8.578125 L 10.3125 -8.6875 C 11.15625 -8.738281 11.878906 -8.921875 12.484375 -9.234375 C 13.085938 -9.554688 13.582031 -9.953125 13.96875 -10.421875 C 14.351562 -10.890625 14.628906 -11.398438 14.796875 -11.953125 C 14.972656 -12.503906 15.0625 -13.046875 15.0625 -13.578125 C 15.0625 -14.046875 14.96875 -14.554688 14.78125 -15.109375 C 14.601562 -15.671875 14.289062 -16.191406 13.84375 -16.671875 C 13.394531 -17.160156 12.785156 -17.566406 12.015625 -17.890625 C 11.253906 -18.210938 10.285156 -18.375 9.109375 -18.375 Z M 5.53125 -17.21875 L 8.1875 -17.21875 C 8.851562 -17.21875 9.453125 -17.117188 9.984375 -16.921875 C 10.515625 -16.734375 10.972656 -16.46875 11.359375 -16.125 C 11.742188 -15.789062 12.035156 -15.382812 12.234375 -14.90625 C 12.441406 -14.4375 12.546875 -13.921875 12.546875 -13.359375 C 12.546875 -12.890625 12.453125 -12.410156 12.265625 -11.921875 C 12.085938 -11.441406 11.8125 -11.003906 11.4375 -10.609375 C 11.070312 -10.222656 10.625 -9.90625 10.09375 -9.65625 C 9.5625 -9.414062 8.945312 -9.296875 8.25 -9.296875 L 5.53125 -9.296875 Z M 5.53125 -17.21875 "/></g></g></g><g fill="#efd08a" fill-opacity="1"><g transform="translate(120.513801, 226.012792)"><g><path d="M 1.3125 -9.1875 C 1.3125 -8.207031 1.5 -7.160156 1.875 -6.046875 C 2.25 -4.941406 2.835938 -3.914062 3.640625 -2.96875 C 4.453125 -2.019531 5.476562 -1.234375 6.71875 -0.609375 C 7.957031 0.00390625 9.445312 0.3125 11.1875 0.3125 C 12.351562 0.3125 13.410156 0.171875 14.359375 -0.109375 C 15.316406 -0.398438 16.175781 -0.789062 16.9375 -1.28125 C 17.707031 -1.769531 18.367188 -2.332031 18.921875 -2.96875 C 19.484375 -3.613281 19.941406 -4.289062 20.296875 -5 C 20.660156 -5.707031 20.929688 -6.421875 21.109375 -7.140625 C 21.296875 -7.859375 21.390625 -8.539062 21.390625 -9.1875 C 21.390625 -10.164062 21.1875 -11.207031 20.78125 -12.3125 C 20.382812 -13.425781 19.765625 -14.457031 18.921875 -15.40625 C 18.085938 -16.351562 17.023438 -17.132812 15.734375 -17.75 C 14.453125 -18.375 12.9375 -18.6875 11.1875 -18.6875 C 9.445312 -18.6875 7.957031 -18.378906 6.71875 -17.765625 C 5.476562 -17.160156 4.453125 -16.390625 3.640625 -15.453125 C 2.835938 -14.515625 2.25 -13.484375 1.875 -12.359375 C 1.5 -11.242188 1.3125 -10.1875 1.3125 -9.1875 Z M 3.890625 -9.1875 C 3.890625 -10.414062 4.078125 -11.539062 4.453125 -12.5625 C 4.828125 -13.582031 5.34375 -14.457031 6 -15.1875 C 6.65625 -15.925781 7.425781 -16.5 8.3125 -16.90625 C 9.207031 -17.320312 10.179688 -17.53125 11.234375 -17.53125 C 12.265625 -17.53125 13.238281 -17.320312 14.15625 -16.90625 C 15.082031 -16.5 15.890625 -15.925781 16.578125 -15.1875 C 17.265625 -14.457031 17.8125 -13.582031 18.21875 -12.5625 C 18.625 -11.539062 18.828125 -10.414062 18.828125 -9.1875 C 18.828125 -7.957031 18.625 -6.832031 18.21875 -5.8125 C 17.8125 -4.789062 17.265625 -3.910156 16.578125 -3.171875 C 15.890625 -2.441406 15.082031 -1.867188 14.15625 -1.453125 C 13.238281 -1.046875 12.265625 -0.84375 11.234375 -0.84375 C 10.179688 -0.84375 9.207031 -1.046875 8.3125 -1.453125 C 7.425781 -1.867188 6.65625 -2.441406 6 -3.171875 C 5.34375 -3.910156 4.828125 -4.789062 4.453125 -5.8125 C 4.078125 -6.832031 3.890625 -7.957031 3.890625 -9.1875 Z M 3.890625 -9.1875 "/></g></g></g><g fill="#efd08a" fill-opacity="1"><g transform="translate(144.522031, 226.012792)"><g><path d="M 3.40625 0 L 3.40625 -18.375 L 9.453125 -18.375 C 10.898438 -18.375 12.226562 -18.140625 13.4375 -17.671875 C 14.644531 -17.210938 15.679688 -16.578125 16.546875 -15.765625 C 17.410156 -14.953125 18.082031 -13.984375 18.5625 -12.859375 C 19.050781 -11.742188 19.296875 -10.535156 19.296875 -9.234375 C 19.296875 -7.890625 19.046875 -6.648438 18.546875 -5.515625 C 18.046875 -4.390625 17.363281 -3.414062 16.5 -2.59375 C 15.632812 -1.769531 14.625 -1.128906 13.46875 -0.671875 C 12.3125 -0.222656 11.078125 0 9.765625 0 Z M 5.796875 -1.15625 L 8.6875 -1.15625 C 10.125 -1.15625 11.34375 -1.394531 12.34375 -1.875 C 13.351562 -2.351562 14.179688 -2.976562 14.828125 -3.75 C 15.472656 -4.519531 15.941406 -5.378906 16.234375 -6.328125 C 16.535156 -7.285156 16.6875 -8.238281 16.6875 -9.1875 C 16.6875 -10.238281 16.507812 -11.25 16.15625 -12.21875 C 15.8125 -13.1875 15.300781 -14.039062 14.625 -14.78125 C 13.957031 -15.53125 13.125 -16.125 12.125 -16.5625 C 11.125 -17 9.976562 -17.21875 8.6875 -17.21875 L 5.796875 -17.21875 Z M 5.796875 -1.15625 "/></g></g></g><g fill="#efd08a" fill-opacity="1"><g transform="translate(165.906442, 226.012792)"><g><path d="M 3.15625 -18.375 L 3.15625 0 L 5.53125 0 L 5.53125 -8.109375 L 6.6875 -8.109375 C 7.175781 -8.109375 7.582031 -8.0625 7.90625 -7.96875 C 8.238281 -7.882812 8.535156 -7.738281 8.796875 -7.53125 C 9.054688 -7.320312 9.300781 -7.050781 9.53125 -6.71875 C 9.757812 -6.382812 10.03125 -5.972656 10.34375 -5.484375 L 12.421875 -2.421875 C 12.679688 -2.015625 12.9375 -1.644531 13.1875 -1.3125 C 13.445312 -0.976562 13.722656 -0.691406 14.015625 -0.453125 C 14.316406 -0.222656 14.65625 -0.0390625 15.03125 0.09375 C 15.40625 0.238281 15.851562 0.3125 16.375 0.3125 C 16.757812 0.3125 17.070312 0.289062 17.3125 0.25 C 17.5625 0.21875 17.8125 0.132812 18.0625 0 L 18.0625 -0.96875 C 17.96875 -0.945312 17.878906 -0.929688 17.796875 -0.921875 C 17.710938 -0.921875 17.625 -0.921875 17.53125 -0.921875 C 17.164062 -0.921875 16.84375 -0.972656 16.5625 -1.078125 C 16.28125 -1.179688 16.015625 -1.332031 15.765625 -1.53125 C 15.523438 -1.738281 15.289062 -1.984375 15.0625 -2.265625 C 14.832031 -2.554688 14.597656 -2.882812 14.359375 -3.25 C 13.617188 -4.320312 13.046875 -5.175781 12.640625 -5.8125 C 12.242188 -6.445312 11.925781 -6.941406 11.6875 -7.296875 C 11.457031 -7.648438 11.265625 -7.90625 11.109375 -8.0625 C 10.960938 -8.21875 10.785156 -8.347656 10.578125 -8.453125 L 10.3125 -8.578125 L 10.3125 -8.6875 C 11.15625 -8.738281 11.878906 -8.921875 12.484375 -9.234375 C 13.085938 -9.554688 13.582031 -9.953125 13.96875 -10.421875 C 14.351562 -10.890625 14.628906 -11.398438 14.796875 -11.953125 C 14.972656 -12.503906 15.0625 -13.046875 15.0625 -13.578125 C 15.0625 -14.046875 14.96875 -14.554688 14.78125 -15.109375 C 14.601562 -15.671875 14.289062 -16.191406 13.84375 -16.671875 C 13.394531 -17.160156 12.785156 -17.566406 12.015625 -17.890625 C 11.253906 -18.210938 10.285156 -18.375 9.109375 -18.375 Z M 5.53125 -17.21875 L 8.1875 -17.21875 C 8.851562 -17.21875 9.453125 -17.117188 9.984375 -16.921875 C 10.515625 -16.734375 10.972656 -16.46875 11.359375 -16.125 C 11.742188 -15.789062 12.035156 -15.382812 12.234375 -14.90625 C 12.441406 -14.4375 12.546875 -13.921875 12.546875 -13.359375 C 12.546875 -12.890625 12.453125 -12.410156 12.265625 -11.921875 C 12.085938 -11.441406 11.8125 -11.003906 11.4375 -10.609375 C 11.070312 -10.222656 10.625 -9.90625 10.09375 -9.65625 C 9.5625 -9.414062 8.945312 -9.296875 8.25 -9.296875 L 5.53125 -9.296875 Z M 5.53125 -17.21875 "/></g></g></g><g fill="#efd08a" fill-opacity="1"><g transform="translate(186.057644, 226.012792)"><g><path d="M 4.203125 -18.375 L 4.203125 0 L 6.59375 0 L 6.59375 -18.375 Z M 4.203125 -18.375 "/></g></g></g><g fill="#efd08a" fill-opacity="1"><g transform="translate(198.153705, 226.012792)"><g><path d="M 19.875 -8.1875 L 14.671875 -8.1875 L 14.671875 -7.109375 L 17.609375 -7.109375 L 17.609375 -2.359375 C 16.828125 -1.847656 16.023438 -1.46875 15.203125 -1.21875 C 14.378906 -0.976562 13.441406 -0.859375 12.390625 -0.859375 C 11.003906 -0.859375 9.796875 -1.066406 8.765625 -1.484375 C 7.734375 -1.910156 6.875 -2.492188 6.1875 -3.234375 C 5.507812 -3.984375 5 -4.867188 4.65625 -5.890625 C 4.3125 -6.910156 4.140625 -8.035156 4.140625 -9.265625 C 4.140625 -10.472656 4.300781 -11.582031 4.625 -12.59375 C 4.957031 -13.613281 5.445312 -14.488281 6.09375 -15.21875 C 6.738281 -15.957031 7.53125 -16.523438 8.46875 -16.921875 C 9.40625 -17.328125 10.492188 -17.53125 11.734375 -17.53125 C 12.554688 -17.53125 13.328125 -17.441406 14.046875 -17.265625 C 14.765625 -17.097656 15.398438 -16.875 15.953125 -16.59375 C 16.515625 -16.3125 16.972656 -15.988281 17.328125 -15.625 C 17.691406 -15.269531 17.925781 -14.910156 18.03125 -14.546875 L 19.921875 -14.546875 C 19.765625 -14.929688 19.5 -15.363281 19.125 -15.84375 C 18.75 -16.320312 18.234375 -16.769531 17.578125 -17.1875 C 16.929688 -17.613281 16.128906 -17.96875 15.171875 -18.25 C 14.222656 -18.539062 13.101562 -18.6875 11.8125 -18.6875 C 10.320312 -18.6875 8.953125 -18.476562 7.703125 -18.0625 C 6.453125 -17.644531 5.367188 -17.039062 4.453125 -16.25 C 3.546875 -15.457031 2.835938 -14.488281 2.328125 -13.34375 C 1.828125 -12.195312 1.578125 -10.898438 1.578125 -9.453125 C 1.578125 -8.210938 1.769531 -7.007812 2.15625 -5.84375 C 2.550781 -4.675781 3.15625 -3.632812 3.96875 -2.71875 C 4.789062 -1.800781 5.832031 -1.066406 7.09375 -0.515625 C 8.351562 0.0351562 9.859375 0.3125 11.609375 0.3125 C 12.921875 0.3125 14.082031 0.171875 15.09375 -0.109375 C 16.101562 -0.398438 16.941406 -0.722656 17.609375 -1.078125 L 17.609375 0 L 19.875 0 Z M 19.875 -8.1875 "/></g></g></g><g fill="#efd08a" fill-opacity="1"><g transform="translate(220.902498, 226.012792)"><g><path d="M 2.09375 -18.375 L 2.09375 -7.09375 C 2.09375 -6.375 2.160156 -5.578125 2.296875 -4.703125 C 2.441406 -3.835938 2.773438 -3.035156 3.296875 -2.296875 C 3.828125 -1.554688 4.609375 -0.9375 5.640625 -0.4375 C 6.671875 0.0625 8.082031 0.3125 9.875 0.3125 C 10.988281 0.3125 11.976562 0.140625 12.84375 -0.203125 C 13.71875 -0.554688 14.445312 -1.039062 15.03125 -1.65625 C 15.613281 -2.269531 16.050781 -2.984375 16.34375 -3.796875 C 16.644531 -4.609375 16.796875 -5.476562 16.796875 -6.40625 L 16.796875 -18.375 L 15.640625 -18.375 L 15.640625 -7.265625 C 15.640625 -6.878906 15.628906 -6.488281 15.609375 -6.09375 C 15.597656 -5.707031 15.546875 -5.316406 15.453125 -4.921875 C 15.367188 -4.523438 15.234375 -4.132812 15.046875 -3.75 C 14.867188 -3.363281 14.601562 -2.976562 14.25 -2.59375 C 13.625 -1.914062 12.914062 -1.453125 12.125 -1.203125 C 11.34375 -0.960938 10.519531 -0.84375 9.65625 -0.84375 C 8.925781 -0.84375 8.273438 -0.953125 7.703125 -1.171875 C 7.128906 -1.398438 6.59375 -1.742188 6.09375 -2.203125 C 5.6875 -2.554688 5.378906 -2.90625 5.171875 -3.25 C 4.960938 -3.601562 4.804688 -3.945312 4.703125 -4.28125 C 4.597656 -4.625 4.535156 -4.972656 4.515625 -5.328125 C 4.492188 -5.679688 4.484375 -6.03125 4.484375 -6.375 L 4.484375 -18.375 Z M 2.09375 -18.375 "/></g></g></g><g fill="#efd08a" fill-opacity="1"><g transform="translate(241.106182, 226.012792)"><g><path d="M 3.15625 -18.375 L 3.15625 0 L 15.015625 0 L 15.015625 -1.4375 L 5.53125 -1.4375 L 5.53125 -9.140625 L 13.671875 -9.140625 L 13.671875 -10.34375 L 5.53125 -10.34375 L 5.53125 -16.9375 L 15.015625 -16.9375 L 15.015625 -18.375 Z M 3.15625 -18.375 "/></g></g></g><g fill="#efd08a" fill-opacity="1"><g transform="translate(258.213748, 226.012792)"><g><path d="M 0.96875 -4.640625 C 1.007812 -3.890625 1.207031 -3.207031 1.5625 -2.59375 C 1.914062 -1.988281 2.40625 -1.46875 3.03125 -1.03125 C 3.65625 -0.601562 4.382812 -0.269531 5.21875 -0.03125 C 6.0625 0.195312 6.984375 0.3125 7.984375 0.3125 C 8.992188 0.3125 9.90625 0.191406 10.71875 -0.046875 C 11.53125 -0.296875 12.222656 -0.644531 12.796875 -1.09375 C 13.378906 -1.550781 13.828125 -2.101562 14.140625 -2.75 C 14.460938 -3.40625 14.625 -4.125 14.625 -4.90625 C 14.625 -5.988281 14.351562 -6.875 13.8125 -7.5625 C 13.269531 -8.257812 12.585938 -8.835938 11.765625 -9.296875 C 10.953125 -9.765625 10.066406 -10.15625 9.109375 -10.46875 C 8.160156 -10.789062 7.28125 -11.125 6.46875 -11.46875 C 5.65625 -11.820312 4.976562 -12.222656 4.4375 -12.671875 C 3.894531 -13.128906 3.625 -13.734375 3.625 -14.484375 C 3.625 -14.910156 3.710938 -15.304688 3.890625 -15.671875 C 4.078125 -16.035156 4.347656 -16.351562 4.703125 -16.625 C 5.066406 -16.894531 5.507812 -17.113281 6.03125 -17.28125 C 6.5625 -17.445312 7.164062 -17.53125 7.84375 -17.53125 C 8.988281 -17.53125 9.957031 -17.289062 10.75 -16.8125 C 11.539062 -16.332031 12.007812 -15.578125 12.15625 -14.546875 L 13.9375 -14.546875 C 13.832031 -15.191406 13.59375 -15.769531 13.21875 -16.28125 C 12.851562 -16.800781 12.390625 -17.238281 11.828125 -17.59375 C 11.273438 -17.957031 10.644531 -18.226562 9.9375 -18.40625 C 9.226562 -18.59375 8.488281 -18.6875 7.71875 -18.6875 C 6.914062 -18.6875 6.148438 -18.582031 5.421875 -18.375 C 4.691406 -18.164062 4.050781 -17.859375 3.5 -17.453125 C 2.945312 -17.054688 2.507812 -16.550781 2.1875 -15.9375 C 1.863281 -15.320312 1.703125 -14.617188 1.703125 -13.828125 C 1.703125 -12.796875 1.960938 -11.960938 2.484375 -11.328125 C 3.015625 -10.703125 3.675781 -10.179688 4.46875 -9.765625 C 5.269531 -9.347656 6.132812 -8.988281 7.0625 -8.6875 C 7.988281 -8.394531 8.847656 -8.054688 9.640625 -7.671875 C 10.441406 -7.296875 11.101562 -6.835938 11.625 -6.296875 C 12.15625 -5.753906 12.421875 -5.03125 12.421875 -4.125 C 12.421875 -2.988281 12.003906 -2.15625 11.171875 -1.625 C 10.335938 -1.101562 9.226562 -0.84375 7.84375 -0.84375 C 6.738281 -0.84375 5.851562 -0.984375 5.1875 -1.265625 C 4.53125 -1.554688 4.023438 -1.898438 3.671875 -2.296875 C 3.328125 -2.703125 3.09375 -3.117188 2.96875 -3.546875 C 2.84375 -3.984375 2.769531 -4.347656 2.75 -4.640625 Z M 0.96875 -4.640625 "/></g></g></g><g fill="#ffffff" fill-opacity="1"><g transform="translate(153.393539, 247.025242)"><g><path d="M 0.890625 0 L 0.890625 -6.828125 L 5.765625 -6.828125 L 5.765625 -5.796875 L 2.046875 -5.796875 L 2.046875 -3.9375 L 5.375 -3.9375 L 5.375 -2.921875 L 2.046875 -2.921875 L 2.046875 -1.03125 L 5.890625 -1.03125 L 5.890625 0 Z M 0.890625 0 "/></g></g></g><g fill="#ffffff" fill-opacity="1"><g transform="translate(162.805729, 247.025242)"><g><path d="M 5.046875 -5.203125 C 4.703125 -5.410156 4.351562 -5.566406 4 -5.671875 C 3.644531 -5.773438 3.328125 -5.828125 3.046875 -5.828125 C 2.710938 -5.828125 2.441406 -5.765625 2.234375 -5.640625 C 2.035156 -5.515625 1.9375 -5.332031 1.9375 -5.09375 C 1.9375 -4.882812 2 -4.710938 2.125 -4.578125 C 2.257812 -4.441406 2.425781 -4.332031 2.625 -4.25 C 2.820312 -4.175781 3.09375 -4.085938 3.4375 -3.984375 C 3.90625 -3.835938 4.28125 -3.695312 4.5625 -3.5625 C 4.851562 -3.425781 5.097656 -3.226562 5.296875 -2.96875 C 5.503906 -2.707031 5.609375 -2.363281 5.609375 -1.9375 C 5.609375 -1.53125 5.5 -1.175781 5.28125 -0.875 C 5.070312 -0.570312 4.769531 -0.335938 4.375 -0.171875 C 3.988281 -0.015625 3.546875 0.0625 3.046875 0.0625 C 2.515625 0.0625 2.003906 -0.03125 1.515625 -0.21875 C 1.035156 -0.414062 0.613281 -0.6875 0.25 -1.03125 L 0.75 -2.015625 C 1.09375 -1.703125 1.46875 -1.453125 1.875 -1.265625 C 2.289062 -1.085938 2.6875 -1 3.0625 -1 C 3.457031 -1 3.769531 -1.078125 4 -1.234375 C 4.226562 -1.390625 4.34375 -1.597656 4.34375 -1.859375 C 4.34375 -2.078125 4.273438 -2.253906 4.140625 -2.390625 C 4.003906 -2.523438 3.832031 -2.632812 3.625 -2.71875 C 3.425781 -2.800781 3.15625 -2.894531 2.8125 -3 C 2.34375 -3.132812 1.96875 -3.265625 1.6875 -3.390625 C 1.40625 -3.523438 1.160156 -3.722656 0.953125 -3.984375 C 0.753906 -4.242188 0.65625 -4.582031 0.65625 -5 C 0.65625 -5.382812 0.757812 -5.71875 0.96875 -6 C 1.175781 -6.289062 1.46875 -6.515625 1.84375 -6.671875 C 2.21875 -6.835938 2.648438 -6.921875 3.140625 -6.921875 C 3.566406 -6.921875 3.988281 -6.851562 4.40625 -6.71875 C 4.820312 -6.59375 5.195312 -6.421875 5.53125 -6.203125 Z M 5.046875 -5.203125 "/></g></g></g><g fill="#ffffff" fill-opacity="1"><g transform="translate(171.886419, 247.025242)"><g><path d="M 0.09375 -5.796875 L 0.09375 -6.828125 L 5.5625 -6.828125 L 5.5625 -5.796875 L 3.390625 -5.796875 L 3.390625 0 L 2.25 0 L 2.25 -5.796875 Z M 0.09375 -5.796875 "/></g></g></g><g fill="#ffffff" fill-opacity="1"><g transform="translate(180.547855, 247.025242)"><g><path d="M 0.890625 0 L 0.890625 -6.828125 L 5.765625 -6.828125 L 5.765625 -5.796875 L 2.046875 -5.796875 L 2.046875 -3.9375 L 5.375 -3.9375 L 5.375 -2.921875 L 2.046875 -2.921875 L 2.046875 -1.03125 L 5.890625 -1.03125 L 5.890625 0 Z M 2.84375 -7.484375 L 3.8125 -8.828125 L 4.96875 -8.34375 L 3.765625 -7.390625 Z M 2.84375 -7.484375 "/></g></g></g><g fill="#ffffff" fill-opacity="1"><g transform="translate(189.960045, 247.025242)"><g><path d="M 0.09375 -5.796875 L 0.09375 -6.828125 L 5.5625 -6.828125 L 5.5625 -5.796875 L 3.390625 -5.796875 L 3.390625 0 L 2.25 0 L 2.25 -5.796875 Z M 0.09375 -5.796875 "/></g></g></g><g fill="#ffffff" fill-opacity="1"><g transform="translate(198.621479, 247.025242)"><g><path d="M 0.890625 0 L 0.890625 -6.828125 L 2.046875 -6.828125 L 2.046875 0 Z M 0.890625 0 "/></g></g></g><g fill="#ffffff" fill-opacity="1"><g transform="translate(204.582168, 247.025242)"><g><path d="M 5.84375 -4.984375 C 5.59375 -5.265625 5.296875 -5.484375 4.953125 -5.640625 C 4.617188 -5.796875 4.28125 -5.875 3.9375 -5.875 C 3.488281 -5.875 3.078125 -5.765625 2.703125 -5.546875 C 2.328125 -5.328125 2.03125 -5.03125 1.8125 -4.65625 C 1.601562 -4.289062 1.5 -3.882812 1.5 -3.4375 C 1.5 -2.988281 1.609375 -2.578125 1.828125 -2.203125 C 2.046875 -1.828125 2.335938 -1.53125 2.703125 -1.3125 C 3.078125 -1.101562 3.488281 -1 3.9375 -1 C 4.28125 -1 4.617188 -1.070312 4.953125 -1.21875 C 5.285156 -1.363281 5.582031 -1.5625 5.84375 -1.8125 L 6.515625 -1.046875 C 6.171875 -0.703125 5.765625 -0.425781 5.296875 -0.21875 C 4.828125 -0.0078125 4.351562 0.09375 3.875 0.09375 C 3.21875 0.09375 2.617188 -0.0625 2.078125 -0.375 C 1.535156 -0.6875 1.109375 -1.109375 0.796875 -1.640625 C 0.484375 -2.179688 0.328125 -2.773438 0.328125 -3.421875 C 0.328125 -4.066406 0.484375 -4.65625 0.796875 -5.1875 C 1.117188 -5.71875 1.550781 -6.132812 2.09375 -6.4375 C 2.644531 -6.75 3.253906 -6.90625 3.921875 -6.90625 C 4.398438 -6.90625 4.867188 -6.804688 5.328125 -6.609375 C 5.785156 -6.421875 6.179688 -6.160156 6.515625 -5.828125 Z M 5.84375 -4.984375 "/></g></g></g><g fill="#ffffff" fill-opacity="1"><g transform="translate(214.394103, 247.025242)"><g><path d="M 7.1875 0 L 5.953125 0 L 5.296875 -1.546875 L 1.859375 -1.546875 L 1.203125 0 L 0.015625 0 L 3.015625 -6.828125 L 4.203125 -6.828125 Z M 3.578125 -5.59375 L 2.296875 -2.5625 L 4.859375 -2.5625 Z M 3.578125 -5.59375 "/></g></g></g></svg>